2.5Hzlow3min_grf.mot
version=1
nRows=10
nColumns 19
inDegrees=yes
endheader
time	1_ground_force_vx	1_ground_force_vy	1_ground_force_vz	1_ground_force_px	1_ground_force_py	1_ground_force_pz	1_ground_torque_x	1_ground_torque_y	1_ground_torque_z	2_ground_force_vx	2_ground_force_vy	2_ground_force_vz	2_ground_force_px	2_ground_force_py	2_ground_force_pz	2_ground_torque_x	2_ground_torque_y	2_ground_torque_z
            3.751500	           -2.584384	         1177.044159	         -100.005539	           -0.248326	            0.006047	           -0.365015	           -0.002080	            0.947440	           -0.080498	           -7.934372	         1130.908588	           88.320841	           -0.248183	            0.005670	           -0.720783	            0.013361	           -1.904426	           -0.148730
            3.752000	           -2.629850	         1175.601829	          -99.965757	           -0.248332	            0.006047	           -0.364893	           -0.002047	            0.914913	           -0.077798	           -8.118009	         1129.804786	           87.800777	           -0.248102	            0.005670	           -0.720789	            0.013357	           -1.858865	           -0.144458
            3.752500	           -2.675430	         1174.159694	          -99.971827	           -0.248364	            0.006047	           -0.364980	           -0.002228	            0.977694	           -0.083244	           -8.485018	         1127.595251	           87.370691	           -0.248028	            0.005670	           -0.720617	            0.014563	           -1.935264	           -0.149952
            3.753000	           -2.812207	         1172.536338	          -99.795019	           -0.248261	            0.006047	           -0.364934	           -0.002343	            0.976917	           -0.083146	           -8.574395	         1126.308545	           86.615282	           -0.247978	            0.005670	           -0.720487	            0.014958	           -1.964842	           -0.151100
            3.753500	           -2.857412	         1170.913440	          -99.664290	           -0.248223	            0.006047	           -0.364953	           -0.002267	            0.928787	           -0.079055	           -8.943418	         1124.651416	           86.140246	           -0.247868	            0.005670	           -0.720437	            0.015606	           -1.962468	           -0.150311
            3.754000	           -3.223488	         1170.371619	          -99.436423	           -0.248118	            0.006047	           -0.364835	           -0.002434	            0.883661	           -0.075077	           -9.548746	         1123.546426	           85.526505	           -0.247786	            0.005670	           -0.720408	            0.016275	           -1.915019	           -0.145775
            3.754500	           -3.451122	         1168.566694	          -98.939165	           -0.248136	            0.006047	           -0.364922	           -0.002518	            0.852592	           -0.072187	           -9.868364	         1121.153985	           84.814174	           -0.247683	            0.005670	           -0.720250	            0.017183	           -1.952222	           -0.147684
            3.755000	           -3.221482	         1167.484812	          -98.852652	           -0.248001	            0.006047	           -0.364876	           -0.002176	            0.788588	           -0.066771	          -10.189126	         1119.128196	           84.525518	           -0.247558	            0.005670	           -0.720212	            0.017991	           -1.976002	           -0.149243
            3.755500	           -3.174528	         1165.140157	          -98.587687	           -0.247900	            0.006048	           -0.365023	           -0.002172	            0.797127	           -0.067448	          -10.558957	         1117.656318	           83.722650	           -0.247448	            0.005671	           -0.720230	            0.018159	           -1.922081	           -0.143981
            3.756000	           -3.266403	         1162.437243	          -98.874182	           -0.247919	            0.006048	           -0.365095	           -0.002306	            0.820565	           -0.069795	          -10.506352	         1116.001123	           83.200500	           -0.247366	            0.005671	           -0.720196	            0.018631	           -1.979012	           -0.147540
